<?xml version="1.0" standalone="no"?><svg xmlns="http://www.w3.org/2000/svg" viewBox="0 0 1440 320"><path fill="#00cba9" fill-opacity="0.56" d="M0,64L24,96C48,128,96,192,144,218.7C192,245,240,235,288,224C336,213,384,203,432,213.3C480,224,528,256,576,266.7C624,277,672,267,720,229.3C768,192,816,128,864,106.7C912,85,960,107,1008,128C1056,149,1104,171,1152,154.7C1200,139,1248,85,1296,80C1344,75,1392,117,1416,138.7L1440,160L1440,320L1416,320C1392,320,1344,320,1296,320C1248,320,1200,320,1152,320C1104,320,1056,320,1008,320C960,320,912,320,864,320C816,320,768,320,720,320C672,320,624,320,576,320C528,320,480,320,432,320C384,320,336,320,288,320C240,320,192,320,144,320C96,320,48,320,24,320L0,320Z"></path></svg>